<?xml version="1.0" standalone="no"?>
<!DOCTYPE svg PUBLIC "-//W3C//DTD SVG 20010904//EN"
 "http://www.w3.org/TR/2001/REC-SVG-20010904/DTD/svg10.dtd">
<svg version="1.0" xmlns="http://www.w3.org/2000/svg"
 width="750.000000pt" height="750.000000pt" viewBox="0 0 750.000000 750.000000"
 preserveAspectRatio="xMidYMid meet">
<metadata>
Created by potrace 1.11, written by Peter Selinger 2001-2013
</metadata>
<g transform="translate(0.000000,750.000000) scale(0.100000,-0.100000)"
fill="#000000" stroke="none">
<path d="M5835 6205 c-51 -15 -103 -42 -247 -127 -209 -123 -575 -289 -1110
-502 -175 -70 -383 -156 -464 -191 -315 -141 -634 -315 -831 -456 -113 -80
-473 -440 -531 -529 -61 -93 -206 -390 -242 -493 -22 -66 -30 -106 -30 -159 0
-82 -13 -109 -84 -176 -26 -23 -46 -49 -46 -58 0 -40 78 -137 131 -165 53 -27
86 -24 126 11 47 42 59 40 126 -24 42 -39 61 -45 71 -20 17 43 -5 85 -47 89
-36 4 -47 13 -47 38 0 23 51 87 69 87 5 0 16 -9 24 -20 19 -27 71 -42 103 -30
49 19 20 103 -46 130 -39 16 -31 26 25 32 65 8 208 81 370 189 227 153 424
247 980 472 365 147 445 184 581 264 182 109 274 182 459 367 254 254 372 411
509 677 92 177 127 266 165 411 50 195 50 203 -14 183z m-3319 -2700 c33 -51
-1 -95 -75 -98 -75 -3 -93 42 -36 92 45 39 88 42 111 6z"/>
<path d="M1122 5465 c-108 -24 -203 -77 -266 -147 -61 -67 -76 -99 -56 -123
16 -20 75 -19 134 1 71 24 137 15 236 -33 90 -44 178 -115 223 -179 30 -44 57
-157 57 -239 0 -29 -13 -113 -30 -187 -26 -117 -46 -239 -80 -503 -8 -65 -3
-127 14 -154 8 -12 45 -15 62 -3 16 10 34 48 34 71 0 30 19 35 31 8 9 -20 6
-36 -19 -93 -43 -98 -55 -148 -56 -236 -1 -85 13 -117 37 -84 13 17 16 16 48
-24 73 -90 92 -110 103 -110 7 0 25 25 41 55 30 60 75 105 105 105 41 0 70
-57 70 -136 0 -19 4 -34 9 -34 11 0 78 88 109 143 20 36 23 52 19 108 -6 73
-3 83 33 94 37 11 65 41 119 125 61 95 110 193 160 317 94 239 100 377 22 579
-96 249 -328 481 -593 596 -196 84 -419 117 -566 83z"/>
<path d="M6376 5154 c-36 -37 -53 -97 -37 -128 22 -40 50 -46 107 -25 28 11
61 30 73 43 21 23 22 26 7 54 -21 40 -72 82 -100 82 -13 0 -35 -12 -50 -26z"/>
<path d="M6754 5125 c-13 -20 -15 -31 -6 -49 12 -28 72 -51 107 -42 47 12 44
76 -5 101 -44 23 -77 19 -96 -10z"/>
<path d="M6705 4843 c-70 -15 -115 -53 -115 -98 0 -24 59 -65 93 -65 55 1 107
58 107 118 0 26 -5 35 -26 42 -14 6 -28 9 -32 9 -4 -1 -16 -3 -27 -6z"/>
<path d="M6132 4813 c-36 -7 -102 -76 -102 -106 0 -70 114 -105 249 -76 28 6
61 19 73 28 20 17 21 22 10 59 -7 23 -27 53 -47 71 -32 28 -42 31 -98 30 -34
-1 -72 -4 -85 -6z"/>
<path d="M6893 4593 c-34 -7 -65 -52 -58 -83 18 -75 102 -97 158 -42 28 28 29
33 18 61 -22 52 -64 75 -118 64z"/>
<path d="M6444 4426 c-83 -38 -81 -73 6 -120 65 -36 158 -46 194 -23 33 22 40
49 22 91 -31 75 -126 97 -222 52z"/>
<path d="M4705 4135 c-157 -24 -235 -44 -445 -114 -231 -78 -450 -168 -588
-242 -234 -125 -500 -340 -526 -426 -9 -30 7 -57 52 -89 20 -15 28 -23 17 -19
-11 4 -48 10 -81 13 -53 4 -65 1 -83 -17 -25 -25 -27 -58 -5 -90 18 -26 18
-26 199 4 78 13 183 18 480 20 374 3 478 10 620 42 132 30 195 70 195 125 0
36 34 53 125 61 119 11 307 73 530 175 61 27 155 65 210 83 96 32 107 33 250
33 147 1 152 0 261 -37 61 -20 117 -37 124 -37 37 0 -46 144 -127 222 -155
147 -397 257 -644 293 -131 19 -437 18 -564 0z"/>
<path d="M2876 3034 c-14 -36 -6 -41 40 -24 29 11 24 23 -12 34 -15 5 -24 2
-28 -10z"/>
<path d="M2642 2550 c-102 -15 -123 -49 -104 -165 15 -86 63 -183 119 -242 60
-61 231 -170 407 -259 148 -75 150 -75 207 -69 48 6 66 3 120 -20 173 -72 489
-165 683 -200 105 -20 122 -29 137 -73 11 -32 13 -34 53 -29 22 3 53 8 68 12
37 10 56 -24 66 -114 4 -39 12 -70 17 -69 6 1 19 34 31 73 18 61 44 117 91
199 40 67 -26 278 -129 414 -63 85 -195 210 -294 281 -113 80 -365 205 -466
230 -42 11 -119 24 -172 30 -107 12 -752 13 -834 1z"/>
</g>
</svg>
